PathFileType	4	(X/Y/Z)	/Users/visionmauri/Downloads/Videos/OAW03-top_Sports2D/OAW03-top_Sports2D_m_person00.trc
DataRate	CameraRate	NumFrames	NumMarkers	Units	OrigDataRate	OrigDataStartFrame	OrigNumFrames
30.0	30.0	6	22	m	30.0	1073	2146
Frame#	Time	Hip			RHip			RKnee			RAnkle			RBigToe			RSmallToe			RHeel			LHip			LKnee			LAnkle			LBigToe			LSmallToe			LHeel			Neck			Head			Nose			RShoulder			RElbow			RWrist			LShoulder			LElbow			LWrist			
		X1	Y1	Z1	X2	Y2	Z2	X3	Y3	Z3	X4	Y4	Z4	X5	Y5	Z5	X6	Y6	Z6	X7	Y7	Z7	X8	Y8	Z8	X9	Y9	Z9	X10	Y10	Z10	X11	Y11	Z11	X12	Y12	Z12	X13	Y13	Z13	X14	Y14	Z14	X15	Y15	Z15	X16	Y16	Z16	X17	Y17	Z17	X18	Y18	Z18	X19	Y19	Z19	X20	Y20	Z20	X21	Y21	Z21	X22	Y22	Z22
1073	35.7833411033411	3.129416412802784	-0.0382728095190036	0.0301	3.0344136207332126	-0.17936694250143911	0.0301	3.406109074998793	-0.5205935741412167	0.129	3.7341910859427823	-0.6868626048640093	0.023	3.924653784504047	-0.8008495694262631	0.2179	3.845477637609789	-0.8442529106100132	0.1804	3.769442542664761	-0.6827582000311848	-0.0119	3.237274462118285	0.07969334698815489	0.0301	3.712422290715474	-0.29214107357947927	0.129	4.208108264171237	-0.6903647908334218	0.023	4.345188971644557	-0.8293270202178743	0.2179	4.3727797926812215	-0.7483544217829086	0.1804	4.24352797096129	-0.7493244438981194	-0.0119	2.4964114990003425	0.44792031062581794	0.0008	2.2690081779375326	0.6986577316441893	0.0655	2.486028794756224	0.5126465170404318	0.1076	2.367511720595988	0.1649600681630693	-0.01275	2.617125546413395	-0.20258580713718852	0.0702	2.8935628409119856	-0.4597493060067132	0.1076	2.704115895940546	0.6459215846079537	-0.01275	3.089972224950646	0.4998197496099679	0.0702	3.4363883561413537	0.34932151793258764	0.1076
1074	35.81668997668998	3.159275253825071	-0.0494475072612317	0.0301	3.062237333167873	-0.19295685008522986	0.0301	3.4179941323373693	-0.533982192152936	0.129	3.73998809190804	-0.6875549608552229	0.023	3.928431810752642	-0.8002522250456876	0.2179	3.847638997378699	-0.8442490300765636	0.1804	3.7711221016816014	-0.6803710084793363	-0.0119	3.2690124778920016	0.06617162902943982	0.0301	3.7469261516423615	-0.31098648129918255	0.129	4.255911106811604	-0.7201784145904027	0.023	4.397485709701298	-0.8612065126912443	0.2179	4.421677700276527	-0.7762866564382574	0.1804	4.2934082727716465	-0.782113453214346	-0.0119	2.5209139182949323	0.44790974108195236	0.0008	2.298564912041793	0.7022269219693937	0.0655	2.519469840247072	0.5114381590544124	0.1076	2.3929290178535556	0.15965710277784598	-0.01275	2.636090777407985	-0.21077491234206175	0.0702	2.9077550017490115	-0.46937715221479415	0.1076	2.7367730503308416	0.645441978395123	-0.01275	3.1196226047917532	0.5017919489942826	0.0702	3.4667352277403327	0.3599702691576081	0.1076
1075	35.85003885003885	3.1921354548883407	-0.057806084897468836	0.0301	3.0919888687836434	-0.2050941525369101	0.0301	3.4317172685335864	-0.5426727651871278	0.129	3.744623100756531	-0.6911489320860515	0.023	3.931386424542243	-0.7964712016867675	0.2179	3.84695808613803	-0.8433883931509707	0.1804	3.7710860522100043	-0.6774251637083248	-0.0119	3.3000759745362287	0.05522509889123088	0.0301	3.7798427585985994	-0.32877582025296187	0.129	4.290700010527473	-0.7457069830384572	0.023	4.448197189510315	-0.8933019026923233	0.2179	4.472346659965731	-0.805876422620879	0.1804	4.32973670677483	-0.8104309292742377	-0.0119	2.5475130519485085	0.45004796951275405	0.0008	2.3210727839594507	0.706560482847497	0.0655	2.5416117230385686	0.5189744691949183	0.1076	2.4198640494613395	0.15640678680218897	-0.01275	2.6576276174362814	-0.2176772319335073	0.0702	2.9262297246523437	-0.4786343445666337	0.1076	2.773966261419776	0.6485887447446222	-0.01275	3.155553344866744	0.5062638830174095	0.0702	3.5050827392606285	0.36974054450950333	0.1076
1076	35.88338772338772	3.222454623310722	-0.06277019525760766	0.0301	3.1164937690837813	-0.21417244454059806	0.0301	3.4522787564890667	-0.5463933538551792	0.129	3.7464618846490114	-0.6959484325097712	0.023	3.9354598632168485	-0.792070903239542	0.2179	3.8483067107736533	-0.8435523043216095	0.1804	3.76680048293334	-0.6733115495774079	-0.0119	3.3277510705073188	0.05041915742848211	0.0301	3.810922158404492	-0.3418682038488654	0.129	4.316645023965919	-0.7633899639329623	0.023	4.485305736564121	-0.9154540696426592	0.2179	4.513550045870906	-0.8287242660360414	0.1804	4.354872378626695	-0.8301037311686394	-0.0119	2.577433499024962	0.44914597027386266	0.0008	2.346061486411111	0.7019766516052232	0.0655	2.567354024539999	0.5174722022350864	0.1076	2.44296498328423	0.1564752748717244	-0.01275	2.679450746558919	-0.22146509074943682	0.0702	2.9497167340723567	-0.4891614180153708	0.1076	2.8070781264068225	0.6538758111009059	-0.01275	3.191907772834533	0.5114426164724213	0.0702	3.5505419154555655	0.3770192760417945	0.1076
1077	35.9167365967366	3.2450015100843324	-0.06588092414417782	0.0301	3.132674874922569	-0.2192831815944068	0.0301	3.4781491020417596	-0.5468719332543693	0.129	3.748749049439247	-0.7017590791685206	0.023	3.9398564490157955	-0.7880037910269723	0.2179	3.855371728005084	-0.8438559321196604	0.1804	3.761882348529406	-0.6742424647937117	-0.0119	3.3519380003648265	0.05100756713598183	0.0301	3.836934760924602	-0.34779677131143644	0.129	4.332396242838191	-0.7718236514035448	0.023	4.4968642547007605	-0.9217734413079207	0.2179	4.531376679187218	-0.8371580865204961	0.1804	4.366361405329916	-0.8385338980599423	-0.0119	2.605333901262748	0.4497187049079334	0.0008	2.375607516650138	0.6989630583506236	0.0655	2.605542130574598	0.5049228364788138	0.1076	2.458573666057064	0.1612475305905201	-0.01275	2.6992883191210293	-0.221079717951919	0.0702	2.9722699568590856	-0.496235027316343	0.1076	2.832177928464303	0.6615244923389095	-0.01275	3.223214044968123	0.5151497263163294	0.0702	3.5975530675187057	0.38039228863246605	0.1076
1078	35.95008547008547	3.2648075761644657	-0.06845183177865591	0.0301	3.1500746193398625	-0.22162192792690988	0.0301	3.504652905304052	-0.5489383933095595	0.129	3.756272352681743	-0.709723965587267	0.023	3.947745221338684	-0.788381276781404	0.2179	3.867033110799668	-0.846200923182316	0.1804	3.7618767001586906	-0.6848082459922102	-0.0119	3.3781556637576466	0.05172850877214128	0.0301	3.8587817178263024	-0.35013732520379653	0.129	4.338316972325685	-0.7741077398439978	0.023	4.490933092921339	-0.9198482414609825	0.2179	4.531417829923662	-0.8356227648248753	0.1804	4.3673232453172455	-0.8398706155462613	-0.0119	2.625412309220883	0.4606782869180874	0.0008	2.4030974829978904	0.7113536108278997	0.0655	2.6453950737091336	0.5001814450995404	0.1076	2.470840548515516	0.16974270241678988	-0.01275	2.7167227233924214	-0.21636707863540153	0.0702	2.988307234276067	-0.4943592849191938	0.1076	2.8559541306096246	0.6729895992954329	-0.01275	3.2550629843727372	0.5175664986787243	0.0702	3.6436793634823443	0.37921379841524705	0.1076
